<?xml version="1.0" encoding="UTF-8" standalone="no"?>
<!-- Created with Inkscape (http://www.inkscape.org/) -->

<svg
   xmlns:dc="http://purl.org/dc/elements/1.1/"
   xmlns:cc="http://creativecommons.org/ns#"
   xmlns:rdf="http://www.w3.org/1999/02/22-rdf-syntax-ns#"
   xmlns:svg="http://www.w3.org/2000/svg"
   xmlns="http://www.w3.org/2000/svg"
   xmlns:sodipodi="http://sodipodi.sourceforge.net/DTD/sodipodi-0.dtd"
   xmlns:inkscape="http://www.inkscape.org/namespaces/inkscape"
   width="925"
   height="700"
   id="svg2700"
   sodipodi:version="0.32"
   inkscape:version="0.91 r13725"
   version="1.0"
   sodipodi:docname="California_English_vowel_chart.svg"
   inkscape:output_extension="org.inkscape.output.svg.inkscape">
  <defs
     id="defs2702">
    <inkscape:perspective
       sodipodi:type="inkscape:persp3d"
       inkscape:vp_x="0 : 360 : 1"
       inkscape:vp_y="0 : 1000 : 0"
       inkscape:vp_z="980 : 360 : 1"
       inkscape:persp3d-origin="490 : 240 : 1"
       id="perspective2577" />
    <marker
       inkscape:stockid="Arrow1Mend"
       orient="auto"
       refY="0"
       refX="0"
       id="Arrow1Mend"
       style="overflow:visible">
      <path
         id="path3248"
         d="M 0,0 5,-5 -12.5,0 5,5 0,0 z"
         style="fill-rule:evenodd;stroke:#000000;stroke-width:1pt;marker-start:none"
         transform="matrix(-0.4,0,0,-0.4,-4,0)"
         inkscape:connector-curvature="0" />
    </marker>
  </defs>
  <sodipodi:namedview
     id="base"
     pagecolor="#ffffff"
     bordercolor="#666666"
     borderopacity="1.0"
     inkscape:pageopacity="0.0"
     inkscape:pageshadow="2"
     inkscape:zoom="0.54540816"
     inkscape:cx="209.12605"
     inkscape:cy="415.06209"
     inkscape:document-units="px"
     inkscape:current-layer="layer2"
     inkscape:window-width="1366"
     inkscape:window-height="705"
     inkscape:window-x="-8"
     inkscape:window-y="-8"
     showgrid="true"
     inkscape:window-maximized="1"
     fit-margin-left="20"
     fit-margin-bottom="20"
     fit-margin-right="20"
     fit-margin-top="20">
    <inkscape:grid
       type="xygrid"
       id="grid2384"
       visible="true"
       enabled="true"
       empspacing="5"
       snapvisiblegridlinesonly="true"
       originx="2px"
       originy="-10px" />
  </sodipodi:namedview>
  <metadata
     id="metadata1">
    <rdf:RDF>
      <cc:Work
         rdf:about="">
        <dc:format>image/svg+xml</dc:format>
        <dc:type
           rdf:resource="http://purl.org/dc/dcmitype/StillImage" />
      </cc:Work>
    </rdf:RDF>
  </metadata>
  <g
     inkscape:label="Trapezium Layer"
     inkscape:groupmode="layer"
     id="layer1"
     style="display:inline"
     sodipodi:insensitive="true"
     transform="translate(2,-10)">
    <g
       id="g4087">
      <path
         inkscape:connector-curvature="0"
         id="path3036"
         d="M 901,688 459,688 20,32 898,32 z"
         style="fill:none;stroke:#000000;stroke-width:4;stroke-linecap:butt;stroke-linejoin:miter;stroke-miterlimit:4;stroke-opacity:1;stroke-dasharray:none" />
      <path
         inkscape:connector-curvature="0"
         id="path3812"
         d="m 314,472 586,0"
         style="fill:none;stroke:#000000;stroke-width:4;stroke-linecap:butt;stroke-linejoin:miter;stroke-miterlimit:4;stroke-opacity:1;stroke-dasharray:none" />
      <path
         inkscape:connector-curvature="0"
         id="path3818"
         d="m 899,251 -732,0"
         style="fill:none;stroke:#000000;stroke-width:4;stroke-linecap:butt;stroke-linejoin:miter;stroke-miterlimit:4;stroke-opacity:1;stroke-dasharray:none" />
      <path
         inkscape:connector-curvature="0"
         id="path3826"
         d="M 684,688 463,32"
         style="fill:none;stroke:#000000;stroke-width:4;stroke-linecap:butt;stroke-linejoin:miter;stroke-miterlimit:4;stroke-opacity:1;stroke-dasharray:none" />
    </g>
  </g>
  <g
     inkscape:groupmode="layer"
     id="layer2"
     inkscape:label="Vowel Layer"
     style="display:inline"
     transform="translate(2,-10)">
    <g
       id="g4128">
      <path
         transform="matrix(1.1331813,0,0,1.2317188,955.36,65.717759)"
         style="display:inline;overflow:visible;visibility:visible;fill:#000000;fill-opacity:1;fill-rule:evenodd;stroke:#000000;stroke-width:8.46436787;stroke-linecap:butt;stroke-linejoin:miter;stroke-miterlimit:4;stroke-dasharray:none;stroke-dashoffset:0;stroke-opacity:1;marker:none;enable-background:accumulate"
         d="m -54.14844,180.46509 a 11.472127,10.554357 0 0 1 -11.472127,10.55435 11.472127,10.554357 0 0 1 -11.472127,-10.55435 11.472127,10.554357 0 0 1 11.472127,-10.55436 11.472127,10.554357 0 0 1 11.472127,10.55436 z"
         id="path3965" />
      <g
         style="font-style:normal;font-variant:normal;font-weight:normal;font-stretch:normal;font-size:52px;font-family:'Bitstream Vera Serif';-inkscape-font-specification:'Bitstream Vera Serif';fill:#000000;fill-opacity:1;stroke:none"
         id="text3967">
        <path
           d="m 834.04687,300.94922 q 4.33594,0 6.53321,-3.42774 2.22656,-3.42773 2.22656,-10.10742 0,-6.67969 -2.22656,-10.07812 -2.19727,-3.42774 -6.53321,-3.42774 -4.33593,0 -6.5625,3.42774 -2.19726,3.39843 -2.19726,10.07812 0,6.67969 2.22656,10.10742 2.22656,3.42774 6.5332,3.42774 z m 0,2.90039 q -6.79687,0 -10.92773,-4.48242 -4.13086,-4.51172 -4.13086,-11.95313 0,-7.4414 4.10156,-11.92383 4.13086,-4.48242 10.95703,-4.48242 6.82618,0 10.92774,4.48242 4.13086,4.48243 4.13086,11.92383 0,7.44141 -4.13086,11.95313 -4.10156,4.48242 -10.92774,4.48242 z"
           style="font-style:normal;font-variant:normal;font-weight:normal;font-stretch:normal;font-size:60px;font-family:'DejaVu Serif';-inkscape-font-specification:'DejaVu Serif'"
           id="path4195" />
      </g>
    </g>
    <g
       id="g4096">
      <path
         transform="matrix(1.1331813,0,0,1.2317188,269.36,-5.282241)"
         style="display:inline;overflow:visible;visibility:visible;fill:#000000;fill-opacity:1;fill-rule:evenodd;stroke:#000000;stroke-width:8.46436787;stroke-linecap:butt;stroke-linejoin:miter;stroke-miterlimit:4;stroke-dasharray:none;stroke-dashoffset:0;stroke-opacity:1;marker:none;enable-background:accumulate"
         d="m -54.14844,180.46509 a 11.472127,10.554357 0 0 1 -11.472127,10.55435 11.472127,10.554357 0 0 1 -11.472127,-10.55435 11.472127,10.554357 0 0 1 11.472127,-10.55436 11.472127,10.554357 0 0 1 11.472127,10.55436 z"
         id="path2399" />
      <g
         style="font-style:normal;font-variant:normal;font-weight:normal;font-stretch:normal;font-size:52px;font-family:'Bitstream Vera Serif';-inkscape-font-specification:'Bitstream Vera Serif';fill:#000000;fill-opacity:1;stroke:none"
         id="text2421">
        <path
           d="m 254.55927,211.76657 -23.23243,0 0,0.23438 q 0,6.29882 2.37305,9.52148 2.37305,3.19336 7.00195,3.19336 3.54493,0 5.80078,-1.8457 2.28516,-1.875 3.19336,-5.53711 l 4.33594,0 q -1.28906,5.12695 -4.77539,7.70508 -3.45703,2.57812 -9.11133,2.57812 -6.82617,0 -10.98633,-4.48242 -4.13085,-4.51172 -4.13085,-11.95313 0,-7.38281 4.07226,-11.89453 4.07227,-4.51172 10.69336,-4.51172 7.06055,0 10.83984,4.36524 3.7793,4.33594 3.92579,12.62695 z m -6.35743,-3.10547 q -0.17578,-5.44922 -2.31445,-8.20312 -2.10937,-2.78321 -6.09375,-2.78321 -3.7207,0 -5.85937,2.78321 -2.13868,2.7832 -2.60743,8.20312 l 16.875,0 z"
           style="font-style:normal;font-variant:normal;font-weight:normal;font-stretch:normal;font-size:60px;font-family:'DejaVu Serif';-inkscape-font-specification:'DejaVu Serif'"
           id="path4199" />
      </g>
    </g>
    <g
       id="g4104">
      <path
         transform="matrix(1.1331813,0,0,1.2317188,166.36,-158.28224)"
         style="display:inline;overflow:visible;visibility:visible;fill:#000000;fill-opacity:1;fill-rule:evenodd;stroke:#000000;stroke-width:8.46436787;stroke-linecap:butt;stroke-linejoin:miter;stroke-miterlimit:4;stroke-dasharray:none;stroke-dashoffset:0;stroke-opacity:1;marker:none;enable-background:accumulate"
         d="m -54.14844,180.46509 a 11.472127,10.554357 0 0 1 -11.472127,10.55435 11.472127,10.554357 0 0 1 -11.472127,-10.55435 11.472127,10.554357 0 0 1 11.472127,-10.55436 11.472127,10.554357 0 0 1 11.472127,10.55436 z"
         id="path3997" />
      <g
         style="font-style:normal;font-variant:normal;font-weight:normal;font-stretch:normal;font-size:52px;font-family:'Bitstream Vera Serif';-inkscape-font-specification:'Bitstream Vera Serif';fill:#000000;fill-opacity:1;stroke:none"
         id="text3999">
        <path
           d="m 130.8698,58.956024 q 0,-1.347656 0.9668,-2.34375 0.9961,-0.996094 2.37305,-0.996094 1.34765,0 2.31445,0.996094 0.9961,0.996094 0.9961,2.34375 0,1.376953 -0.9668,2.34375 -0.9668,0.966797 -2.34375,0.966797 -1.37695,0 -2.37305,-0.966797 -0.9668,-0.966797 -0.9668,-2.34375 z m 6.88477,37.705078 5.09766,0 0,3.105469 -15.64453,0 0,-3.105469 5.15625,0 0,-24.902343 -5.15625,0 0,-3.134766 10.54687,0 0,28.037109 z"
           style="font-style:normal;font-variant:normal;font-weight:normal;font-stretch:normal;font-size:60px;font-family:'DejaVu Serif';-inkscape-font-specification:'DejaVu Serif'"
           id="path4203" />
      </g>
    </g>
    <g
       id="g4011"
       transform="translate(482,-128)">
      <path
         transform="matrix(1.1331813,0,0,1.2317188,269.36,-5.282241)"
         style="display:inline;overflow:visible;visibility:visible;fill:#000000;fill-opacity:1;fill-rule:evenodd;stroke:#000000;stroke-width:8.46436787;stroke-linecap:butt;stroke-linejoin:miter;stroke-miterlimit:4;stroke-dasharray:none;stroke-dashoffset:0;stroke-opacity:1;marker:none;enable-background:accumulate"
         d="m -54.14844,180.46509 a 11.472127,10.554357 0 0 1 -11.472127,10.55435 11.472127,10.554357 0 0 1 -11.472127,-10.55435 11.472127,10.554357 0 0 1 11.472127,-10.55436 11.472127,10.554357 0 0 1 11.472127,10.55436 z"
         id="path4013" />
      <g
         style="font-style:normal;font-variant:normal;font-weight:normal;font-stretch:normal;font-size:52px;font-family:'Bitstream Vera Serif';-inkscape-font-specification:'Bitstream Vera Serif';fill:#000000;fill-opacity:1;stroke:none"
         id="text4015">
        <path
           d="m 151.27997,201.62399 10.07812,0 0,28.03711 5.09766,0 0,3.10547 -10.48828,0 0,-5.50781 q -1.49414,3.10547 -3.86719,4.74609 -2.37305,1.61133 -5.50781,1.61133 -5.18555,0 -7.64649,-2.92969 -2.43164,-2.95898 -2.43164,-9.25781 l 0,-16.66992 -4.86328,0 0,-3.13477 10.28321,0 0,18.13477 q 0,5.68359 1.37695,7.79297 1.40625,2.10937 4.98047,2.10937 3.75,0 5.71289,-2.7539 1.96289,-2.75391 1.96289,-7.99805 l 0,-14.15039 -4.6875,0 0,-3.13477 z"
           style="font-style:normal;font-variant:normal;font-weight:normal;font-stretch:normal;font-size:60px;font-family:'DejaVu Serif';-inkscape-font-specification:'DejaVu Serif'"
           id="path4207" />
      </g>
    </g>
    <g
       id="g4120">
      <path
         transform="matrix(1.1331813,0,0,1.2317188,381.36,71.717759)"
         style="display:inline;overflow:visible;visibility:visible;fill:#000000;fill-opacity:1;fill-rule:evenodd;stroke:#000000;stroke-width:8.46436787;stroke-linecap:butt;stroke-linejoin:miter;stroke-miterlimit:4;stroke-dasharray:none;stroke-dashoffset:0;stroke-opacity:1;marker:none;enable-background:accumulate"
         d="m -54.14844,180.46509 a 11.472127,10.554357 0 0 1 -11.472127,10.55435 11.472127,10.554357 0 0 1 -11.472127,-10.55435 11.472127,10.554357 0 0 1 11.472127,-10.55436 11.472127,10.554357 0 0 1 11.472127,10.55436 z"
         id="path4021" />
      <g
         style="font-style:normal;font-variant:normal;font-weight:normal;font-stretch:normal;font-size:52px;font-family:'Bitstream Vera Serif';-inkscape-font-specification:'Bitstream Vera Serif';fill:#000000;fill-opacity:1;stroke:none"
         id="text4023">
        <path
           d="m 270.75458,306.6611 5.09765,0 0,3.10547 -15.64453,0 0,-3.10547 5.15625,0 0,-24.90234 -5.15625,0 0,-3.13477 15.64453,0 0,3.01758 -5.09765,0 0,25.01953 z"
           style="font-style:normal;font-variant:normal;font-weight:normal;font-stretch:normal;font-size:60px;font-family:'DejaVu Serif';-inkscape-font-specification:'DejaVu Serif'"
           id="path4211" />
      </g>
    </g>
    <g
       id="g4027"
       transform="translate(446,-31)">
      <path
         transform="matrix(1.1331813,0,0,1.2317188,269.36,-5.282241)"
         style="display:inline;overflow:visible;visibility:visible;fill:#000000;fill-opacity:1;fill-rule:evenodd;stroke:#000000;stroke-width:8.46436787;stroke-linecap:butt;stroke-linejoin:miter;stroke-miterlimit:4;stroke-dasharray:none;stroke-dashoffset:0;stroke-opacity:1;marker:none;enable-background:accumulate"
         d="m -54.14844,180.46509 a 11.472127,10.554357 0 0 1 -11.472127,10.55435 11.472127,10.554357 0 0 1 -11.472127,-10.55435 11.472127,10.554357 0 0 1 11.472127,-10.55436 11.472127,10.554357 0 0 1 11.472127,10.55436 z"
         id="path4029" />
      <g
         style="font-style:normal;font-variant:normal;font-weight:normal;font-stretch:normal;font-size:52px;font-family:'Bitstream Vera Serif';-inkscape-font-specification:'Bitstream Vera Serif';fill:#000000;fill-opacity:1;stroke:none"
         id="text4031">
        <path
           d="m 159.68036,203.76266 -7.17774,0 q 4.48243,1.875 7.11915,5.6543 2.63671,3.8086 2.63671,8.4082 0,3.25196 -1.25976,6.06446 -1.25977,2.90039 -3.60352,5.03906 -2.10937,1.96289 -4.86328,2.98828 -2.7832,1.05469 -5.88867,1.05469 -3.13477,0 -5.85938,-1.02539 -2.7246,-1.02539 -4.86328,-3.01758 -2.40234,-2.19727 -3.63281,-5.03906 -1.25976,-2.8418 -1.25976,-6.06446 0,-4.5996 2.63671,-8.3789 2.63672,-3.8086 7.14844,-5.6836 l -9.75586,0 0,-3.10546 13.03711,0 0,4.83398 q -3.48633,1.34766 -5.27344,4.36523 -1.78711,3.01758 -1.78711,7.5 0,5.41993 2.63672,8.70118 2.66602,3.28125 6.97266,3.28125 4.30664,0 6.94336,-3.28125 2.66601,-3.28125 2.66601,-8.70118 0,-4.51171 -1.7871,-7.52929 -1.78711,-2.98828 -5.24415,-4.33594 l 0,-4.83398 10.45899,0 0,3.10546 z"
           style="font-style:normal;font-variant:normal;font-weight:normal;font-stretch:normal;font-size:60px;font-family:'DejaVu Serif';-inkscape-font-specification:'DejaVu Serif'"
           id="path4215" />
      </g>
    </g>
    <g
       transform="translate(390,158)"
       id="g4035">
      <path
         transform="matrix(1.1331813,0,0,1.2317188,269.36,-5.282241)"
         style="display:inline;overflow:visible;visibility:visible;fill:#000000;fill-opacity:1;fill-rule:evenodd;stroke:#000000;stroke-width:8.46436787;stroke-linecap:butt;stroke-linejoin:miter;stroke-miterlimit:4;stroke-dasharray:none;stroke-dashoffset:0;stroke-opacity:1;marker:none;enable-background:accumulate"
         d="m -54.14844,180.46509 a 11.472127,10.554357 0 0 1 -11.472127,10.55435 11.472127,10.554357 0 0 1 -11.472127,-10.55435 11.472127,10.554357 0 0 1 11.472127,-10.55436 11.472127,10.554357 0 0 1 11.472127,10.55436 z"
         id="path4037" />
      <g
         style="font-style:normal;font-variant:normal;font-weight:normal;font-stretch:normal;font-size:52px;font-family:'Bitstream Vera Serif';-inkscape-font-specification:'Bitstream Vera Serif';fill:#000000;fill-opacity:1;stroke:none"
         id="text4039">
        <path
           d="m 162.04168,208.58884 2.19727,2.28515 q -2.25586,1.40625 -2.34375,1.43555 -1.37696,0.49805 -4.16016,0.49805 -3.31055,0 -6.12305,-2.72461 -2.46094,-2.37305 -2.7832,-6.24024 l -7.4707,4.27735 q 1.20117,3.13476 1.20117,7.08984 0,7.38281 -4.07227,11.89453 -4.07226,4.51172 -10.69336,4.51172 -7.08984,0 -10.83984,-4.36523 -2.95899,-3.45704 -3.33984,-6.73829 l 21.79687,-12.53906 q -0.55664,-1.8164 -1.52344,-3.10547 -2.37304,-3.19336 -7.00195,-3.19336 -3.54492,0 -5.83008,1.84571 -2.22656,1.8164 -3.16406,5.53711 l -4.33594,0 q 1.28906,-5.12696 4.7461,-7.70508 3.48632,-2.57813 9.14062,-2.57813 6.82617,0 10.95703,4.51172 0.87891,0.9668 1.58203,2.05078 l 7.99805,-4.59961 3.33984,0 0,1.78711 q 0,3.83789 1.9043,5.56641 2.02148,1.81641 4.42383,1.81641 4.04297,0 4.39453,-1.31836 z m -25.95703,2.57812 -16.31836,9.3457 q 0.0586,2.95899 1.93359,5.44922 2.10938,2.75391 6.09375,2.75391 3.92578,0 5.85938,-2.7832 1.90429,-2.69532 2.60742,-10.72266 l 0,-0.82031 q 0,-1.72852 -0.17578,-3.22266 z"
           style="font-style:normal;font-variant:normal;font-weight:normal;font-stretch:normal;font-size:60px;font-family:'DejaVu Serif';-inkscape-font-specification:'DejaVu Serif'"
           id="path4219" />
      </g>
    </g>
    <g
       id="g4043"
       transform="translate(441,319)">
      <path
         transform="matrix(1.1331813,0,0,1.2317188,269.36,-5.282241)"
         style="display:inline;overflow:visible;visibility:visible;fill:#000000;fill-opacity:1;fill-rule:evenodd;stroke:#000000;stroke-width:8.46436787;stroke-linecap:butt;stroke-linejoin:miter;stroke-miterlimit:4;stroke-dasharray:none;stroke-dashoffset:0;stroke-opacity:1;marker:none;enable-background:accumulate"
         d="m -54.14844,180.46509 a 11.472127,10.554357 0 0 1 -11.472127,10.55435 11.472127,10.554357 0 0 1 -11.472127,-10.55435 11.472127,10.554357 0 0 1 11.472127,-10.55436 11.472127,10.554357 0 0 1 11.472127,10.55436 z"
         id="path4045" />
      <g
         style="font-style:normal;font-variant:normal;font-weight:normal;font-stretch:normal;font-size:52px;font-family:'Bitstream Vera Serif';-inkscape-font-specification:'Bitstream Vera Serif';fill:#000000;fill-opacity:1;stroke:none"
         id="text4047">
        <path
           d="m 150.76044,199.62399 11.45508,28.00782 3.54492,0 0,3.13476 -14.32617,0 0,-3.13476 4.98046,0 -8.75976,-21.41602 -8.75977,21.41602 4.65821,0 0,3.13476 -11.68946,0 0,-3.13476 3.48633,0 11.45508,-28.00782 3.95508,0 z"
           style="font-style:normal;font-variant:normal;font-weight:normal;font-stretch:normal;font-size:60px;font-family:'DejaVu Serif';-inkscape-font-specification:'DejaVu Serif'"
           id="path4223" />
      </g>
    </g>
    <g
       transform="translate(267,416)"
       id="g4051">
      <path
         transform="matrix(1.1331813,0,0,1.2317188,269.36,-5.282241)"
         style="display:inline;overflow:visible;visibility:visible;fill:#000000;fill-opacity:1;fill-rule:evenodd;stroke:#000000;stroke-width:8.46436787;stroke-linecap:butt;stroke-linejoin:miter;stroke-miterlimit:4;stroke-dasharray:none;stroke-dashoffset:0;stroke-opacity:1;marker:none;enable-background:accumulate"
         d="m -54.14844,180.46509 a 11.472127,10.554357 0 0 1 -11.472127,10.55435 11.472127,10.554357 0 0 1 -11.472127,-10.55435 11.472127,10.554357 0 0 1 11.472127,-10.55436 11.472127,10.554357 0 0 1 11.472127,10.55436 z"
         id="path4053" />
      <g
         style="font-style:normal;font-variant:normal;font-weight:normal;font-stretch:normal;font-size:52px;font-family:'Bitstream Vera Serif';-inkscape-font-specification:'Bitstream Vera Serif';fill:#000000;fill-opacity:1;stroke:none"
         id="text4055">
        <path
           d="m 247.91669,222.98141 0,-6.59179 -6.94336,0 q -4.01367,0 -5.97656,1.72851 -1.9629,1.72852 -1.9629,5.30274 0,3.25195 1.99219,5.15625 1.99219,1.90429 5.39063,1.90429 3.36914,0 5.41992,-2.08007 2.08008,-2.08008 2.08008,-5.41993 z m 3.19336,5.39063 q -2.43164,2.66602 -5.39063,3.95508 -2.95898,1.28906 -6.62109,1.28906 -5.77149,0 -8.93555,-2.66602 -3.13476,-2.66601 -3.13476,-7.52929 0,-4.83399 3.48632,-7.5 3.51563,-2.66602 9.84375,-2.66602 l 7.5586,0 0,-2.13867 q 0,-3.51562 -2.10938,-5.47852 -2.10937,-1.96289 -5.85937,-1.96289 -3.39844,0 -5.33203,1.46485 -1.9336,1.43554 -2.40235,4.33594 l -2.7832,0 0,-6.29883 q 2.8125,-1.20117 5.44922,-1.78711 2.66601,-0.61524 5.18554,-0.61524 4.13086,0 6.94336,1.28907 2.8418,1.25976 4.45313,3.89648 2.16797,-2.57812 4.98047,-3.86719 2.8125,-1.31836 6.24023,-1.31836 7.06055,0 10.83985,4.36524 3.77929,4.36523 3.89648,12.62695 l -23.20312,0 0,0.23438 q 0,6.29882 2.34375,9.52148 2.37304,3.19336 7.03125,3.19336 3.54492,0 5.80078,-1.8457 2.28515,-1.875 3.19336,-5.53711 l 4.30664,0 q -1.25977,5.12695 -4.7461,7.70508 -3.48633,2.57812 -9.11133,2.57812 -3.57421,0 -6.62109,-1.31836 -3.01758,-1.34766 -5.30273,-3.92578 z m 19.98047,-13.71094 q -0.17579,-5.44922 -2.31446,-8.20312 -2.10937,-2.78321 -6.09375,-2.78321 -3.7207,0 -5.88867,2.78321 -2.13867,2.7832 -2.57812,8.20312 l 16.875,0 z"
           style="font-style:normal;font-variant:normal;font-weight:normal;font-stretch:normal;font-size:60px;font-family:'DejaVu Serif';-inkscape-font-specification:'DejaVu Serif'"
           id="path4227" />
      </g>
    </g>
    <g
       id="g4059"
       transform="translate(205,304)">
      <path
         transform="matrix(1.1331813,0,0,1.2317188,269.36,-5.282241)"
         style="display:inline;overflow:visible;visibility:visible;fill:#000000;fill-opacity:1;fill-rule:evenodd;stroke:#000000;stroke-width:8.46436787;stroke-linecap:butt;stroke-linejoin:miter;stroke-miterlimit:4;stroke-dasharray:none;stroke-dashoffset:0;stroke-opacity:1;marker:none;enable-background:accumulate"
         d="m -54.14844,180.46509 a 11.472127,10.554357 0 0 1 -11.472127,10.55435 11.472127,10.554357 0 0 1 -11.472127,-10.55435 11.472127,10.554357 0 0 1 11.472127,-10.55436 11.472127,10.554357 0 0 1 11.472127,10.55436 z"
         id="path4061" />
      <g
         style="font-style:normal;font-variant:normal;font-weight:normal;font-stretch:normal;font-size:52px;font-family:'Bitstream Vera Serif';-inkscape-font-specification:'Bitstream Vera Serif';fill:#000000;fill-opacity:1;stroke:none"
         id="text4063">
        <path
           d="m 228.69794,209.0361 q 0,-3.77929 2.87109,-5.77148 2.87109,-1.96289 8.61328,-1.96289 1.58203,0 4.62891,0.46875 3.04687,0.49804 6.32812,1.40625 l 0,6.47461 -3.16406,0 q -0.35156,-2.60743 -2.46094,-3.92578 -2.10937,-1.31836 -4.86328,-1.31836 -6.82617,0 -6.82617,4.89257 0,5.59571 7.5293,5.59571 l 2.72461,0 0,3.07617 -2.69532,0 q -4.6289,0 -6.88476,1.81641 -2.16797,1.75781 -2.16797,5.15625 0,2.31445 1.55273,3.77929 2.54883,2.40235 6.70899,2.40235 3.39844,0 5.85937,-1.55274 2.46094,-1.55273 2.75391,-4.54101 l 3.16406,0 0,6.76757 q -3.10547,1.05469 -6.26953,1.58204 -3.04687,0.52734 -5.39062,0.52734 -6.5625,0 -10.16602,-2.31445 -3.57422,-2.31446 -3.54492,-6.70899 0,-3.95508 3.07617,-6.24023 2.08008,-1.58203 5.5957,-2.34375 -2.40234,-0.55664 -3.98437,-1.58203 -2.98828,-1.96289 -2.98828,-5.6836 z"
           style="font-style:normal;font-variant:normal;font-weight:normal;font-stretch:normal;font-size:60px;font-family:'DejaVu Serif';-inkscape-font-specification:'DejaVu Serif'"
           id="path4231" />
      </g>
    </g>
    <g
       id="g4112">
      <path
         transform="matrix(1.1331813,0,0,1.2317188,899.36,432.71776)"
         style="display:inline;overflow:visible;visibility:visible;fill:#000000;fill-opacity:1;fill-rule:evenodd;stroke:#000000;stroke-width:8.46436787;stroke-linecap:butt;stroke-linejoin:miter;stroke-miterlimit:4;stroke-dasharray:none;stroke-dashoffset:0;stroke-opacity:1;marker:none;enable-background:accumulate"
         d="m -54.14844,180.46509 a 11.472127,10.554357 0 0 1 -11.472127,10.55435 11.472127,10.554357 0 0 1 -11.472127,-10.55435 11.472127,10.554357 0 0 1 11.472127,-10.55436 11.472127,10.554357 0 0 1 11.472127,10.55436 z"
         id="path4069" />
      <g
         style="font-style:normal;font-variant:normal;font-weight:normal;font-stretch:normal;font-size:52px;font-family:'Bitstream Vera Serif';-inkscape-font-specification:'Bitstream Vera Serif';fill:#000000;fill-opacity:1;stroke:none"
         id="text4071">
        <path
           d="m 791.49414,666.86523 5.15625,0 0,3.13477 -10.54687,0 0,-4.86328 q -1.58204,2.92969 -4.04297,4.33594 -2.43164,1.37695 -6.03516,1.37695 -5.74219,0 -9.4043,-4.54102 -3.63281,-4.57031 -3.63281,-11.89453 0,-7.32422 3.63281,-11.86523 3.63282,-4.54102 9.4043,-4.54102 3.60352,0 6.03516,1.40625 2.46093,1.37696 4.04297,4.30664 l 0,-4.86328 10.54687,0 0,3.13477 -5.15625,0 0,24.87304 z m -5.39062,-10.89843 0,-3.07618 q 0,-5.5957 -2.16797,-8.55468 -2.13868,-2.95899 -6.24024,-2.95899 -4.16015,0 -6.29883,3.28125 -2.10937,3.28125 -2.10937,9.75586 0,6.44531 2.10937,9.75586 2.13868,3.31055 6.29883,3.31055 4.10156,0 6.24024,-2.92969 2.16797,-2.95898 2.16797,-8.58398 z"
           style="font-style:normal;font-variant:normal;font-weight:normal;font-stretch:normal;font-size:60px;font-family:'DejaVu Serif';-inkscape-font-specification:'DejaVu Serif'"
           id="path4235" />
      </g>
    </g>
  </g>
</svg>
