<?xml version="1.0" encoding="utf-8"?>
<!-- Generator: Adobe Illustrator 19.2.1, SVG Export Plug-In . SVG Version: 6.00 Build 0)  -->
<svg version="1.1"
	 id="svg2700" inkscape:output_extension="org.inkscape.output.svg.inkscape" inkscape:version="0.91 r13725" sodipodi:docname="California_English_vowel_chart.svg" sodipodi:version="0.32" xmlns:cc="http://creativecommons.org/ns#" xmlns:dc="http://purl.org/dc/elements/1.1/" xmlns:inkscape="http://www.inkscape.org/namespaces/inkscape" xmlns:rdf="http://www.w3.org/1999/02/22-rdf-syntax-ns#" xmlns:sodipodi="http://sodipodi.sourceforge.net/DTD/sodipodi-0.dtd" xmlns:svg="http://www.w3.org/2000/svg"
	 xmlns="http://www.w3.org/2000/svg" xmlns:xlink="http://www.w3.org/1999/xlink" x="0px" y="0px" viewBox="0 0 925 700"
	 style="enable-background:new 0 0 925 700;" xml:space="preserve">
<style type="text/css">
	.st0{fill:none;stroke:#000000;stroke-width:4;}
	.st1{stroke:#000000;stroke-width:8.4644;}
	.st2{font-family:'MyriadPro-Regular';}
	.st3{font-size:18px;}
</style>
<defs>
	
	
		<inkscape:perspective  id="perspective2577" inkscape:persp3d-origin="490 : 240 : 1" inkscape:vp_x="0 : 360 : 1" inkscape:vp_y="0 : 1000 : 0" inkscape:vp_z="980 : 360 : 1" sodipodi:type="inkscape:persp3d">
		</inkscape:perspective>
</defs>
<sodipodi:namedview  bordercolor="#666666" borderopacity="1.0" fit-margin-bottom="20" fit-margin-left="20" fit-margin-right="20" fit-margin-top="20" id="base" inkscape:current-layer="layer2" inkscape:cx="209.12605" inkscape:cy="415.06209" inkscape:document-units="px" inkscape:pageopacity="0.0" inkscape:pageshadow="2" inkscape:window-height="705" inkscape:window-maximized="1" inkscape:window-width="1366" inkscape:window-x="-8" inkscape:window-y="-8" inkscape:zoom="0.54540816" pagecolor="#ffffff" showgrid="true">
	
		<inkscape:grid  empspacing="5" enabled="true" id="grid2384" originx="2px" originy="-10px" snapvisiblegridlinesonly="true" type="xygrid" visible="true">
		</inkscape:grid>
</sodipodi:namedview>
<g id="layer1" transform="translate(2,-10)" inkscape:groupmode="layer" inkscape:label="Trapezium Layer" sodipodi:insensitive="true">
	<g id="g4087">
		<path id="path3036" inkscape:connector-curvature="0" class="st0" d="M680.8,545h-221L240.3,217h439L680.8,545z"/>
		<path id="path3812" inkscape:connector-curvature="0" class="st0" d="M387.3,437h293"/>
		<path id="path3818" inkscape:connector-curvature="0" class="st0" d="M679.8,326.5h-366"/>
		<path id="path3826" inkscape:connector-curvature="0" class="st0" d="M572.3,545L461.8,217"/>
	</g>
</g>
<g id="layer2" transform="translate(2,-10)" inkscape:groupmode="layer" inkscape:label="Vowel Layer">
	<g id="g4128">
		<path id="path3965" class="st1" d="M677.3,345c0,3.6-2.9,6.5-6.5,6.5s-6.5-2.9-6.5-6.5s2.9-6.5,6.5-6.5c0,0,0,0,0,0
			C674.3,338.5,677.3,341.4,677.3,345C677.3,345,677.3,345,677.3,345z"/>
		<g id="text3967">
			<path id="path4195" d="M647.3,351.5c1.4,0,2.5-0.6,3.3-1.7c0.7-1.1,1.1-2.8,1.1-5.1s-0.4-3.9-1.1-5c-0.7-1.1-1.8-1.7-3.3-1.7
				s-2.5,0.6-3.3,1.7c-0.7,1.1-1.1,2.8-1.1,5s0.4,3.9,1.1,5.1S645.8,351.5,647.3,351.5z M647.3,352.9c-2.3,0-4.1-0.7-5.5-2.2
				c-1.4-1.5-2.1-3.5-2.1-6s0.7-4.5,2.1-6c1.4-1.5,3.2-2.2,5.5-2.2s4.1,0.7,5.5,2.2c1.4,1.5,2.1,3.5,2.1,6s-0.7,4.5-2.1,6
				C651.4,352.2,649.5,352.9,647.3,352.9z"/>
		</g>
	</g>
	<g id="g4096">
		<path id="path2399" class="st1" d="M334.3,309.5c0,3.6-2.9,6.5-6.5,6.5s-6.5-2.9-6.5-6.5s2.9-6.5,6.5-6.5c0,0,0,0,0,0
			C331.3,303,334.3,305.9,334.3,309.5C334.3,309.5,334.3,309.5,334.3,309.5z"/>
		<g id="text2421">
			<path id="path4199" d="M357.5,306.9h-11.6v0.1c0,2.1,0.4,3.7,1.2,4.8c0.8,1.1,2,1.6,3.5,1.6c1.2,0,2.1-0.3,2.9-0.9
				c0.8-0.6,1.3-1.5,1.6-2.8h2.2c-0.4,1.7-1.2,3-2.4,3.9c-1.2,0.9-2.7,1.3-4.6,1.3c-2.3,0-4.1-0.7-5.5-2.2c-1.4-1.5-2.1-3.5-2.1-6
				c0-2.5,0.7-4.4,2-5.9c1.4-1.5,3.1-2.3,5.3-2.3c2.4,0,4.2,0.7,5.4,2.2C356.8,302,357.5,304.1,357.5,306.9L357.5,306.9z
				 M354.4,305.3c-0.1-1.8-0.4-3.2-1.2-4.1c-0.7-0.9-1.7-1.4-3-1.4c-1.2,0-2.2,0.5-2.9,1.4c-0.7,0.9-1.1,2.3-1.3,4.1H354.4
				L354.4,305.3z"/>
		</g>
	</g>
	<g id="g4104">
		<path id="path3997" class="st1" d="M282.8,233c0,3.6-2.9,6.5-6.5,6.5s-6.5-2.9-6.5-6.5c0-3.6,2.9-6.5,6.5-6.5c0,0,0,0,0,0
			C279.8,226.5,282.8,229.4,282.8,233C282.8,233,282.8,233,282.8,233z"/>
		<g id="text3999">
			<path id="path4203" d="M295.7,230.5c0-0.4,0.2-0.8,0.5-1.2c0.3-0.3,0.7-0.5,1.2-0.5c0.4,0,0.8,0.2,1.2,0.5
				c0.3,0.3,0.5,0.7,0.5,1.2c0,0.5-0.2,0.8-0.5,1.2s-0.7,0.5-1.2,0.5s-0.9-0.2-1.2-0.5C295.8,231.3,295.7,230.9,295.7,230.5z
				 M299.1,249.3h2.5v1.6h-7.8v-1.6h2.6v-12.5h-2.6v-1.6h5.3V249.3z"/>
		</g>
	</g>
	<g id="g4011" transform="translate(482,-128)">
		<path id="path4013" class="st1" d="M93.2,373.5c0,3.6-2.9,6.5-6.5,6.5s-6.5-2.9-6.5-6.5c0-3.6,2.9-6.5,6.5-6.5c0,0,0,0,0,0
			C90.3,367,93.2,369.9,93.2,373.5C93.2,373.5,93.2,373.5,93.2,373.5z"/>
		<g id="text4015">
			<path id="path4207" d="M64.9,365.8h5v14h2.5v1.6h-5.2v-2.8c-0.5,1-1.1,1.8-1.9,2.4c-0.8,0.5-1.7,0.8-2.8,0.8
				c-1.7,0-3-0.5-3.8-1.5c-0.8-1-1.2-2.5-1.2-4.6v-8.3h-2.4v-1.6h5.1v9.1c0,1.9,0.2,3.2,0.7,3.9c0.5,0.7,1.3,1.1,2.5,1.1
				c1.3,0,2.2-0.5,2.9-1.4c0.7-0.9,1-2.3,1-4v-7.1h-2.3V365.8z"/>
		</g>
	</g>
	<g id="g4120">
		<path id="path4021" class="st1" d="M390.3,348c0,3.6-2.9,6.5-6.5,6.5s-6.5-2.9-6.5-6.5s2.9-6.5,6.5-6.5c0,0,0,0,0,0
			C387.3,341.5,390.3,344.4,390.3,348C390.3,348,390.3,348,390.3,348z"/>
		<g id="text4023">
			<path id="path4211" d="M365.6,354.3h2.5v1.6h-7.8v-1.6h2.6v-12.5h-2.6v-1.6h7.8v1.5h-2.5V354.3z"/>
		</g>
	</g>
	<g id="g4027" transform="translate(446,-31)">
		<path id="path4029" class="st1" d="M111.2,325c0,3.6-2.9,6.5-6.5,6.5s-6.5-2.9-6.5-6.5c0-3.6,2.9-6.5,6.5-6.5c0,0,0,0,0,0
			C108.3,318.5,111.2,321.4,111.2,325C111.2,325,111.2,325,111.2,325z"/>
		<g id="text4031">
			<path id="path4215" d="M87.1,318.4h-3.6c1.5,0.6,2.7,1.6,3.6,2.8c0.9,1.3,1.3,2.7,1.3,4.2c0,1.1-0.2,2.1-0.6,3
				c-0.4,1-1,1.8-1.8,2.5c-0.7,0.7-1.5,1.2-2.4,1.5c-0.9,0.4-1.9,0.5-2.9,0.5c-1,0-2-0.2-2.9-0.5c-0.9-0.3-1.7-0.8-2.4-1.5
				c-0.8-0.7-1.4-1.6-1.8-2.5c-0.4-0.9-0.6-2-0.6-3c0-1.5,0.4-2.9,1.3-4.2c0.9-1.3,2.1-2.2,3.6-2.8h-4.9v-1.6h6.5v2.4
				c-1.2,0.4-2,1.2-2.6,2.2s-0.9,2.3-0.9,3.8c0,1.8,0.4,3.3,1.3,4.4c0.9,1.1,2.1,1.6,3.5,1.6s2.6-0.5,3.5-1.6
				c0.9-1.1,1.3-2.5,1.3-4.4c0-1.5-0.3-2.8-0.9-3.8c-0.6-1-1.5-1.7-2.6-2.2v-2.4h5.2L87.1,318.4L87.1,318.4z"/>
		</g>
	</g>
	<g id="g4035" transform="translate(390,158)">
		<path id="path4037" class="st1" d="M139.2,230.5c0,3.6-2.9,6.5-6.5,6.5c-3.6,0-6.5-2.9-6.5-6.5c0-3.6,2.9-6.5,6.5-6.5c0,0,0,0,0,0
			C136.3,224,139.2,226.9,139.2,230.5C139.2,230.5,139.2,230.5,139.2,230.5z"/>
		<g id="text4039">
			<path id="path4219" d="M116.3,226.3l1.1,1.1c-0.8,0.5-1.1,0.7-1.2,0.7c-0.5,0.2-1.2,0.2-2.1,0.2c-1.1,0-2.1-0.5-3.1-1.4
				c-0.8-0.8-1.3-1.8-1.4-3.1l-3.7,2.1c0.4,1,0.6,2.2,0.6,3.5c0,2.5-0.7,4.4-2,5.9c-1.4,1.5-3.1,2.3-5.3,2.3c-2.4,0-4.2-0.7-5.4-2.2
				c-1-1.2-1.5-2.3-1.7-3.4L103,226c-0.2-0.6-0.4-1.1-0.8-1.6c-0.8-1.1-2-1.6-3.5-1.6c-1.2,0-2.2,0.3-2.9,0.9
				c-0.7,0.6-1.3,1.5-1.6,2.8H92c0.4-1.7,1.2-3,2.4-3.9c1.2-0.9,2.7-1.3,4.6-1.3c2.3,0,4.1,0.8,5.5,2.3c0.3,0.3,0.6,0.7,0.8,1l4-2.3
				h1.7v0.9c0,1.3,0.3,2.2,1,2.8c0.7,0.6,1.4,0.9,2.2,0.9C115.4,227,116.2,226.7,116.3,226.3L116.3,226.3z M103.3,227.6l-8.2,4.7
				c0,1,0.3,1.9,1,2.7c0.7,0.9,1.7,1.4,3,1.4c1.3,0,2.3-0.5,2.9-1.4c0.6-0.9,1.1-2.7,1.3-5.4v-0.4
				C103.4,228.6,103.4,228.1,103.3,227.6z"/>
		</g>
	</g>
	<g id="g4043" transform="translate(441,319)">
		<path id="path4045" class="st1" d="M113.7,150c0,3.6-2.9,6.5-6.5,6.5s-6.5-2.9-6.5-6.5c0-3.6,2.9-6.5,6.5-6.5c0,0,0,0,0,0
			C110.8,143.5,113.7,146.4,113.7,150C113.7,150,113.7,150,113.7,150z"/>
		<g id="text4047">
			<path id="path4223" d="M85.1,141.3l5.7,14h1.8v1.6h-7.2v-1.6H88l-4.4-10.7l-4.4,10.7h2.3v1.6h-5.8v-1.6h1.7l5.7-14H85.1
				L85.1,141.3z"/>
		</g>
	</g>
	<g id="g4051" transform="translate(267,416)">
		<path id="path4053" class="st1" d="M200.7,101.5c0,3.6-2.9,6.5-6.5,6.5c-3.6,0-6.5-2.9-6.5-6.5s2.9-6.5,6.5-6.5c0,0,0,0,0,0
			C197.8,95,200.7,97.9,200.7,101.5C200.7,101.5,200.7,101.5,200.7,101.5z"/>
		<g id="text4055">
			<path id="path4227" d="M220.7,104.5v-3.3h-3.5c-1.3,0-2.3,0.3-3,0.9c-0.7,0.6-1,1.5-1,2.7c0,1.1,0.3,1.9,1,2.6
				c0.7,0.6,1.6,1,2.7,1c1.1,0,2-0.3,2.7-1C220.4,106.5,220.7,105.6,220.7,104.5L220.7,104.5z M222.3,107.2c-0.8,0.9-1.7,1.5-2.7,2
				c-1,0.4-2.1,0.6-3.3,0.6c-1.9,0-3.4-0.4-4.5-1.3c-1-0.9-1.6-2.1-1.6-3.8c0-1.6,0.6-2.9,1.7-3.8c1.2-0.9,2.8-1.3,4.9-1.3h3.8v-1.1
				c0-1.2-0.4-2.1-1.1-2.7c-0.7-0.7-1.7-1-2.9-1c-1.1,0-2,0.2-2.7,0.7c-0.6,0.5-1,1.2-1.2,2.2h-1.4v-3.1c0.9-0.4,1.8-0.7,2.7-0.9
				c0.9-0.2,1.8-0.3,2.6-0.3c1.4,0,2.5,0.2,3.5,0.6c0.9,0.4,1.7,1.1,2.2,1.9c0.7-0.9,1.6-1.5,2.5-1.9c0.9-0.4,2-0.7,3.1-0.7
				c2.4,0,4.2,0.7,5.4,2.2c1.3,1.5,1.9,3.6,1.9,6.3h-11.6v0.1c0,2.1,0.4,3.7,1.2,4.8c0.8,1.1,2,1.6,3.5,1.6c1.2,0,2.1-0.3,2.9-0.9
				c0.8-0.6,1.3-1.5,1.6-2.8h2.2c-0.4,1.7-1.2,3-2.4,3.9c-1.2,0.9-2.7,1.3-4.6,1.3c-1.2,0-2.3-0.2-3.3-0.7
				C224,108.7,223.1,108,222.3,107.2z M232.3,100.3c-0.1-1.8-0.4-3.2-1.2-4.1c-0.7-0.9-1.7-1.4-3-1.4c-1.2,0-2.2,0.5-2.9,1.4
				c-0.7,0.9-1.1,2.3-1.3,4.1H232.3z"/>
		</g>
	</g>
	<g id="g4059" transform="translate(205,304)">
		<path id="path4061" class="st1" d="M231.7,157.5c0,3.6-2.9,6.5-6.5,6.5c-3.6,0-6.5-2.9-6.5-6.5c0-3.6,2.9-6.5,6.5-6.5c0,0,0,0,0,0
			C228.8,151,231.7,153.9,231.7,157.5C231.7,157.5,231.7,157.5,231.7,157.5z"/>
		<g id="text4063">
			<path id="path4231" d="M242.1,153.5c0-1.3,0.5-2.2,1.4-2.9c1-0.7,2.4-1,4.3-1c0.5,0,1.3,0.1,2.3,0.2c1,0.2,2.1,0.4,3.2,0.7v3.2
				h-1.6c-0.1-0.9-0.5-1.5-1.2-2c-0.7-0.4-1.5-0.7-2.4-0.7c-2.3,0-3.4,0.8-3.4,2.4c0,1.9,1.3,2.8,3.8,2.8h1.4v1.5h-1.3
				c-1.5,0-2.7,0.3-3.4,0.9c-0.7,0.6-1.1,1.4-1.1,2.6c0,0.8,0.3,1.4,0.8,1.9c0.8,0.8,2,1.2,3.4,1.2c1.1,0,2.1-0.3,2.9-0.8
				s1.3-1.3,1.4-2.3h1.6v3.4c-1,0.4-2.1,0.6-3.1,0.8c-1,0.2-1.9,0.3-2.7,0.3c-2.2,0-3.9-0.4-5.1-1.2c-1.2-0.8-1.8-1.9-1.8-3.4
				c0-1.3,0.5-2.4,1.5-3.1c0.7-0.5,1.6-0.9,2.8-1.2c-0.8-0.2-1.5-0.4-2-0.8C242.6,155.7,242.1,154.8,242.1,153.5L242.1,153.5z"/>
		</g>
	</g>
	<g id="g4112">
		<path id="path4069" class="st1" d="M649.3,528.5c0,3.6-2.9,6.5-6.5,6.5s-6.5-2.9-6.5-6.5s2.9-6.5,6.5-6.5c0,0,0,0,0,0
			C646.3,522,649.3,524.9,649.3,528.5C649.3,528.5,649.3,528.5,649.3,528.5z"/>
		<g id="text4071">
			<path id="path4235" d="M626,534.4h2.6v1.6h-5.3v-2.4c-0.5,1-1.2,1.7-2,2.2c-0.8,0.5-1.8,0.7-3,0.7c-1.9,0-3.5-0.8-4.7-2.3
				c-1.2-1.5-1.8-3.5-1.8-5.9s0.6-4.4,1.8-5.9s2.8-2.3,4.7-2.3c1.2,0,2.2,0.2,3,0.7c0.8,0.5,1.5,1.2,2,2.2v-2.4h5.3v1.6H626V534.4z
				 M623.3,529v-1.5c0-1.9-0.4-3.3-1.1-4.3c-0.7-1-1.8-1.5-3.1-1.5c-1.4,0-2.4,0.5-3.1,1.6c-0.7,1.1-1.1,2.7-1.1,4.9
				c0,2.1,0.4,3.8,1.1,4.9c0.7,1.1,1.8,1.7,3.1,1.7c1.4,0,2.4-0.5,3.1-1.5C622.9,532.3,623.3,530.9,623.3,529z"/>
		</g>
	</g>
</g>
<text transform="matrix(1 0 0 1 200 190)" class="st2 st3">Front vowel sounds</text>
<text transform="matrix(1 0 0 1 590 190)" class="st2 st3">Back vowel sounds</text>
</svg>
