<?xml version="1.0" encoding="utf-8"?>
<!-- Generator: Adobe Illustrator 19.2.1, SVG Export Plug-In . SVG Version: 6.00 Build 0)  -->
<svg version="1.1"
	 id="svg2700" inkscape:output_extension="org.inkscape.output.svg.inkscape" inkscape:version="0.91 r13725" sodipodi:docname="California_English_vowel_chart.svg" sodipodi:version="0.32" xmlns:cc="http://creativecommons.org/ns#" xmlns:dc="http://purl.org/dc/elements/1.1/" xmlns:inkscape="http://www.inkscape.org/namespaces/inkscape" xmlns:rdf="http://www.w3.org/1999/02/22-rdf-syntax-ns#" xmlns:sodipodi="http://sodipodi.sourceforge.net/DTD/sodipodi-0.dtd" xmlns:svg="http://www.w3.org/2000/svg"
	 xmlns="http://www.w3.org/2000/svg" xmlns:xlink="http://www.w3.org/1999/xlink" x="0px" y="0px" viewBox="0 0 925 700"
	 style="enable-background:new 0 0 925 700;" xml:space="preserve">
<style type="text/css">
	.st0{fill:none;stroke:#000000;stroke-width:4;}
	.st1{stroke:#000000;stroke-width:8.4644;}
	.st2{fill:#C86432;}
	.st3{font-family:'TimesNewRomanPSMT';}
	.st4{font-size:36px;}
	.st5{font-family:'TimesNewRomanPS-BoldMT';}
	.st6{font-size:26.2951px;}
	.st7{font-family:'ArialMT';}
	.st8{font-size:18px;}
</style>
<defs>
	
	
		<inkscape:perspective  id="perspective2577" inkscape:persp3d-origin="490 : 240 : 1" inkscape:vp_x="0 : 360 : 1" inkscape:vp_y="0 : 1000 : 0" inkscape:vp_z="980 : 360 : 1" sodipodi:type="inkscape:persp3d">
		</inkscape:perspective>
</defs>
<g id="layer1" transform="translate(2,-10)" inkscape:groupmode="layer" inkscape:label="Trapezium Layer" sodipodi:insensitive="true">
	<g id="g4087">
		<path id="path3036" inkscape:connector-curvature="0" class="st0" d="M680.8,545h-221L240.3,217h439L680.8,545z"/>
		<path id="path3812" inkscape:connector-curvature="0" class="st0" d="M387.3,437h293"/>
		<path id="path3818" inkscape:connector-curvature="0" class="st0" d="M679.8,326.5h-366"/>
		<path id="path3826" inkscape:connector-curvature="0" class="st0" d="M572.3,545L461.8,217"/>
	</g>
</g>
<g id="layer2" transform="translate(2,-10)" inkscape:groupmode="layer" inkscape:label="Vowel Layer">
	<g id="g4128">
		<path id="path3965" class="st1" d="M673.7,325.4c0-3.6,2.9-6.5,6.5-6.5c3.6,0,6.5,2.9,6.5,6.5s-2.9,6.5-6.5,6.5l0,0
			C676.7,331.9,673.7,329,673.7,325.4L673.7,325.4z"/>
		<g id="text3967">
			<path id="path4195" class="st2" d="M706.7,318.9c-1.4,0-2.5,0.6-3.3,1.7c-0.7,1.1-1.1,2.8-1.1,5.1c0,2.3,0.4,3.9,1.1,5
				c0.7,1.1,1.8,1.7,3.3,1.7c1.5,0,2.5-0.6,3.3-1.7c0.7-1.1,1.1-2.8,1.1-5s-0.4-3.9-1.1-5.1C709.3,319.4,708.2,318.9,706.7,318.9z
				 M706.7,317.5c2.3,0,4.1,0.7,5.5,2.2s2.1,3.5,2.1,6s-0.7,4.5-2.1,6c-1.4,1.5-3.2,2.2-5.5,2.2s-4.1-0.7-5.5-2.2s-2.1-3.5-2.1-6
				s0.7-4.5,2.1-6C702.6,318.2,704.5,317.5,706.7,317.5z"/>
		</g>
	</g>
	<g id="g4096">
		<path id="path2399" class="st1" d="M323.3,327.5c0,3.6-2.9,6.5-6.5,6.5s-6.5-2.9-6.5-6.5s2.9-6.5,6.5-6.5l0,0
			C320.3,321,323.3,323.9,323.3,327.5L323.3,327.5z"/>
		<g id="text2421">
			<path id="path4199" class="st2" d="M295.5,327.9h-11.6v0.1c0,2.1,0.4,3.7,1.2,4.8c0.8,1.1,2,1.6,3.5,1.6c1.2,0,2.1-0.3,2.9-0.9
				s1.3-1.5,1.6-2.8h2.2c-0.4,1.7-1.2,3-2.4,3.9c-1.2,0.9-2.7,1.3-4.6,1.3c-2.3,0-4.1-0.7-5.5-2.2s-2.1-3.5-2.1-6s0.7-4.4,2-5.9
				c1.4-1.5,3.1-2.3,5.3-2.3c2.4,0,4.2,0.7,5.4,2.2C294.8,323,295.5,325.1,295.5,327.9L295.5,327.9z M292.4,326.3
				c-0.1-1.8-0.4-3.2-1.2-4.1c-0.7-0.9-1.7-1.4-3-1.4c-1.2,0-2.2,0.5-2.9,1.4c-0.7,0.9-1.1,2.3-1.3,4.1H292.4L292.4,326.3z"/>
		</g>
	</g>
	<g id="g4104">
		<path id="path3997" class="st1" d="M250.8,219c0,3.6-2.9,6.5-6.5,6.5s-6.5-2.9-6.5-6.5s2.9-6.5,6.5-6.5l0,0
			C247.8,212.5,250.8,215.4,250.8,219L250.8,219z"/>
		<g id="text3999">
			<path id="path4203" class="st2" d="M219.7,212.5c0-0.4,0.2-0.8,0.5-1.2c0.3-0.3,0.7-0.5,1.2-0.5c0.4,0,0.8,0.2,1.2,0.5
				c0.3,0.3,0.5,0.7,0.5,1.2s-0.2,0.8-0.5,1.2s-0.7,0.5-1.2,0.5s-0.9-0.2-1.2-0.5C219.8,213.3,219.7,212.9,219.7,212.5z
				 M223.1,231.3h2.5v1.6h-7.8v-1.6h2.6v-12.5h-2.6v-1.6h5.3V231.3z"/>
		</g>
	</g>
	<g id="g4011" transform="translate(482,-128)">
		<path id="path4013" class="st1" d="M205.2,347.5c0,3.6-2.9,6.5-6.5,6.5s-6.5-2.9-6.5-6.5s2.9-6.5,6.5-6.5l0,0
			C202.3,341,205.2,343.9,205.2,347.5L205.2,347.5z"/>
		<g id="text4015">
			<path id="path4207" class="st2" d="M225.9,339.8h5v14h2.5v1.6h-5.2v-2.8c-0.5,1-1.1,1.8-1.9,2.4c-0.8,0.5-1.7,0.8-2.8,0.8
				c-1.7,0-3-0.5-3.8-1.5c-0.8-1-1.2-2.5-1.2-4.6v-8.3h-2.4v-1.6h5.1v9.1c0,1.9,0.2,3.2,0.7,3.9c0.5,0.7,1.3,1.1,2.5,1.1
				c1.3,0,2.2-0.5,2.9-1.4s1-2.3,1-4v-7.1H226v-1.6H225.9z"/>
		</g>
	</g>
	<g id="g4120">
		<path id="path4021" class="st1" d="M378.3,268c0,3.6-2.9,6.5-6.5,6.5s-6.5-2.9-6.5-6.5s2.9-6.5,6.5-6.5l0,0
			C375.3,261.5,378.3,264.4,378.3,268L378.3,268z"/>
		<g id="text4023">
			<path id="path4211" class="st2" d="M353.6,274.3h2.5v1.6h-7.8v-1.6h2.6v-12.5h-2.6v-1.6h7.8v1.5h-2.5V274.3z"/>
		</g>
	</g>
	<g id="g4027" transform="translate(446,-31)">
		<path id="path4029" class="st1" d="M181.2,305c0,3.6-2.9,6.5-6.5,6.5s-6.5-2.9-6.5-6.5s2.9-6.5,6.5-6.5l0,0
			C178.3,298.5,181.2,301.4,181.2,305L181.2,305z"/>
		<g id="text4031">
			<path id="path4215" class="st2" d="M157.1,298.4h-3.6c1.5,0.6,2.7,1.6,3.6,2.8c0.9,1.3,1.3,2.7,1.3,4.2c0,1.1-0.2,2.1-0.6,3
				c-0.4,1-1,1.8-1.8,2.5c-0.7,0.7-1.5,1.2-2.4,1.5c-0.9,0.4-1.9,0.5-2.9,0.5s-2-0.2-2.9-0.5c-0.9-0.3-1.7-0.8-2.4-1.5
				c-0.8-0.7-1.4-1.6-1.8-2.5s-0.6-2-0.6-3c0-1.5,0.4-2.9,1.3-4.2c0.9-1.3,2.1-2.2,3.6-2.8H143v-1.6h6.5v2.4c-1.2,0.4-2,1.2-2.6,2.2
				s-0.9,2.3-0.9,3.8c0,1.8,0.4,3.3,1.3,4.4c0.9,1.1,2.1,1.6,3.5,1.6c1.4,0,2.6-0.5,3.5-1.6c0.9-1.1,1.3-2.5,1.3-4.4
				c0-1.5-0.3-2.8-0.9-3.8s-1.5-1.7-2.6-2.2v-2.4h5.2L157.1,298.4L157.1,298.4z"/>
		</g>
	</g>
	<g id="g4051" transform="translate(267,416)">
		<path id="path4053" class="st1" d="M170.7,81.5c0,3.6-2.9,6.5-6.5,6.5s-6.5-2.9-6.5-6.5s2.9-6.5,6.5-6.5l0,0
			C167.8,75,170.7,77.9,170.7,81.5L170.7,81.5z"/>
		<g id="text4055">
			<path id="path4227" class="st2" d="M130.7,84.5v-3.3h-3.5c-1.3,0-2.3,0.3-3,0.9s-1,1.5-1,2.7c0,1.1,0.3,1.9,1,2.6
				c0.7,0.6,1.6,1,2.7,1c1.1,0,2-0.3,2.7-1C130.4,86.5,130.7,85.6,130.7,84.5L130.7,84.5z M132.3,87.2c-0.8,0.9-1.7,1.5-2.7,2
				c-1,0.4-2.1,0.6-3.3,0.6c-1.9,0-3.4-0.4-4.5-1.3c-1-0.9-1.6-2.1-1.6-3.8c0-1.6,0.6-2.9,1.7-3.8c1.2-0.9,2.8-1.3,4.9-1.3h3.8v-1.1
				c0-1.2-0.4-2.1-1.1-2.7c-0.7-0.7-1.7-1-2.9-1c-1.1,0-2,0.2-2.7,0.7c-0.6,0.5-1,1.2-1.2,2.2h-1.4v-3.1c0.9-0.4,1.8-0.7,2.7-0.9
				c0.9-0.2,1.8-0.3,2.6-0.3c1.4,0,2.5,0.2,3.5,0.6c0.9,0.4,1.7,1.1,2.2,1.9c0.7-0.9,1.6-1.5,2.5-1.9s2-0.7,3.1-0.7
				c2.4,0,4.2,0.7,5.4,2.2c1.3,1.5,1.9,3.6,1.9,6.3h-11.6v0.1c0,2.1,0.4,3.7,1.2,4.8c0.8,1.1,2,1.6,3.5,1.6c1.2,0,2.1-0.3,2.9-0.9
				c0.8-0.6,1.3-1.5,1.6-2.8h2.2c-0.4,1.7-1.2,3-2.4,3.9s-2.7,1.3-4.6,1.3c-1.2,0-2.3-0.2-3.3-0.7C134,88.7,133.1,88,132.3,87.2z
				 M142.3,80.3c-0.1-1.8-0.4-3.2-1.2-4.1c-0.7-0.9-1.7-1.4-3-1.4c-1.2,0-2.2,0.5-2.9,1.4s-1.1,2.3-1.3,4.1H142.3z"/>
		</g>
	</g>
	<g id="g4059" transform="translate(205,304)">
		<path id="path4061" class="st1" d="M191.7,134.5c0,3.6-2.9,6.5-6.5,6.5s-6.5-2.9-6.5-6.5s2.9-6.5,6.5-6.5l0,0
			C188.8,128,191.7,130.9,191.7,134.5L191.7,134.5z"/>
		<g id="text4063_1_">
			<path id="path4231_1_" class="st2" d="M152.1,130.5c0-1.3,0.5-2.2,1.4-2.9c1-0.7,2.4-1,4.3-1c0.5,0,1.3,0.1,2.3,0.2
				c1,0.2,2.1,0.4,3.2,0.7v3.2h-1.6c-0.1-0.9-0.5-1.5-1.2-2c-0.7-0.4-1.5-0.7-2.4-0.7c-2.3,0-3.4,0.8-3.4,2.4c0,1.9,1.3,2.8,3.8,2.8
				h1.4v1.5h-1.3c-1.5,0-2.7,0.3-3.4,0.9c-0.7,0.6-1.1,1.4-1.1,2.6c0,0.8,0.3,1.4,0.8,1.9c0.8,0.8,2,1.2,3.4,1.2
				c1.1,0,2.1-0.3,2.9-0.8s1.3-1.3,1.4-2.3h1.6v3.4c-1,0.4-2.1,0.6-3.1,0.8s-1.9,0.3-2.7,0.3c-2.2,0-3.9-0.4-5.1-1.2
				c-1.2-0.8-1.8-1.9-1.8-3.4c0-1.3,0.5-2.4,1.5-3.1c0.7-0.5,1.6-0.9,2.8-1.2c-0.8-0.2-1.5-0.4-2-0.8
				C152.6,132.7,152.1,131.8,152.1,130.5L152.1,130.5z"/>
		</g>
	</g>
	<g id="g4112">
		<path id="path4069_1_" class="st1" d="M657.3,543.5c0,3.6-2.9,6.5-6.5,6.5s-6.5-2.9-6.5-6.5s2.9-6.5,6.5-6.5l0,0
			C654.3,537,657.3,539.9,657.3,543.5L657.3,543.5z"/>
		<g id="text4071">
			<path id="path4235" class="st2" d="M657,580.4h2.6v1.6h-5.3v-2.4c-0.5,1-1.2,1.7-2,2.2s-1.8,0.7-3,0.7c-1.9,0-3.5-0.8-4.7-2.3
				s-1.8-3.5-1.8-5.9s0.6-4.4,1.8-5.9s2.8-2.3,4.7-2.3c1.2,0,2.2,0.2,3,0.7s1.5,1.2,2,2.2v-2.4h5.3v1.6H657V580.4z M654.3,575v-1.5
				c0-1.9-0.4-3.3-1.1-4.3c-0.7-1-1.8-1.5-3.1-1.5c-1.4,0-2.4,0.5-3.1,1.6c-0.7,1.1-1.1,2.7-1.1,4.9c0,2.1,0.4,3.8,1.1,4.9
				c0.7,1.1,1.8,1.7,3.1,1.7c1.4,0,2.4-0.5,3.1-1.5C653.9,578.3,654.3,576.9,654.3,575z"/>
		</g>
	</g>
</g>
<g id="Layer_3">
	<g id="g4201">
		<path id="path4069" class="st1" d="M468.3,534.5c0,3.6-2.9,6.5-6.5,6.5s-6.5-2.9-6.5-6.5s2.9-6.5,6.5-6.5l0,0
			C465.3,528,468.3,530.9,468.3,534.5L468.3,534.5z"/>
		<text transform="matrix(1 0 0 1 427.6665 543.2588)" class="st2 st3 st4">a</text>
	</g>
	<g id="g4202">
		<path id="path4069_2_" class="st1" d="M689.3,533.5c0,3.6-2.9,6.5-6.5,6.5s-6.5-2.9-6.5-6.5s2.9-6.5,6.5-6.5l0,0
			C686.3,527,689.3,529.9,689.3,533.5L689.3,533.5z"/>
		<text transform="matrix(1 0 0 1 701.1484 541.333)" class="st2 st3 st4">ɒ</text>
	</g>
	<g id="g4203">
		<path id="path4069_3_" class="st1" d="M406.3,258.5c0,3.6-2.9,6.5-6.5,6.5s-6.5-2.9-6.5-6.5s2.9-6.5,6.5-6.5l0,0
			C403.3,252,406.3,254.9,406.3,258.5L406.3,258.5z"/>
		<text transform="matrix(0.9127 0 0 1 415.7407 266.6855)" class="st2 st5 st6">Y</text>
	</g>
	<g id="g4204">
		<path id="path4069_4_" class="st1" d="M297.3,209.5c0,3.6-2.9,6.5-6.5,6.5s-6.5-2.9-6.5-6.5s2.9-6.5,6.5-6.5l0,0
			C294.3,203,297.3,205.9,297.3,209.5L297.3,209.5z"/>
		<text transform="matrix(1 0 0 1 281.9258 238.6665)" class="st2 st3 st4">y</text>
	</g>
	<g id="g4204_1_">
		<path id="path4069_5_" class="st1" d="M580.3,534.5c0,3.6-2.9,6.5-6.5,6.5s-6.5-2.9-6.5-6.5s2.9-6.5,6.5-6.5l0,0
			C577.3,528,580.3,530.9,580.3,534.5L580.3,534.5z"/>
		<text transform="matrix(1 0 0 1 566.5557 573.3701)" class="st2 st3 st4">ä</text>
	</g>
</g>
<text transform="matrix(1 0 0 1 250 180)" class="st7 st8">Front vowel sounds</text>
<text transform="matrix(1 0 0 1 530 180)" class="st7 st8">Back vowel sounds</text>
</svg>
